<svg viewBox="0 0 210 210" xmlns="http://www.w3.org/2000/svg">
<rect fill="white" height="210" shape-rendering="crispEdges" width="210" x="0" y="0"/>
<rect fill="black" height="7.2413793" shape-rendering="crispEdges" width="7.2413793" x="28.965517" y="28.965517"/>
<rect fill="black" height="7.2413793" shape-rendering="crispEdges" width="7.2413793" x="36.206898" y="28.965517"/>
<rect fill="black" height="7.2413793" shape-rendering="crispEdges" width="7.2413793" x="43.448277" y="28.965517"/>
<rect fill="black" height="7.2413793" shape-rendering="crispEdges" width="7.2413793" x="50.689655" y="28.965517"/>
<rect fill="black" height="7.2413793" shape-rendering="crispEdges" width="7.2413793" x="57.931034" y="28.965517"/>
<rect fill="black" height="7.2413793" shape-rendering="crispEdges" width="7.2413793" x="65.17242" y="28.965517"/>
<rect fill="black" height="7.2413793" shape-rendering="crispEdges" width="7.2413793" x="72.413795" y="28.965517"/>
<rect fill="black" height="7.2413793" shape-rendering="crispEdges" width="7.2413793" x="108.62069" y="28.965517"/>
<rect fill="black" height="7.2413793" shape-rendering="crispEdges" width="7.2413793" x="130.34483" y="28.965517"/>
<rect fill="black" height="7.2413793" shape-rendering="crispEdges" width="7.2413793" x="137.58621" y="28.965517"/>
<rect fill="black" height="7.2413793" shape-rendering="crispEdges" width="7.2413793" x="144.82759" y="28.965517"/>
<rect fill="black" height="7.2413793" shape-rendering="crispEdges" width="7.2413793" x="152.06897" y="28.965517"/>
<rect fill="black" height="7.2413793" shape-rendering="crispEdges" width="7.2413793" x="159.31035" y="28.965517"/>
<rect fill="black" height="7.2413793" shape-rendering="crispEdges" width="7.2413793" x="166.55173" y="28.965517"/>
<rect fill="black" height="7.2413793" shape-rendering="crispEdges" width="7.2413793" x="173.7931" y="28.965517"/>
<rect fill="black" height="7.2413793" shape-rendering="crispEdges" width="7.2413793" x="28.965517" y="36.206898"/>
<rect fill="black" height="7.2413793" shape-rendering="crispEdges" width="7.2413793" x="72.413795" y="36.206898"/>
<rect fill="black" height="7.2413793" shape-rendering="crispEdges" width="7.2413793" x="86.89655" y="36.206898"/>
<rect fill="black" height="7.2413793" shape-rendering="crispEdges" width="7.2413793" x="94.13793" y="36.206898"/>
<rect fill="black" height="7.2413793" shape-rendering="crispEdges" width="7.2413793" x="115.86207" y="36.206898"/>
<rect fill="black" height="7.2413793" shape-rendering="crispEdges" width="7.2413793" x="130.34483" y="36.206898"/>
<rect fill="black" height="7.2413793" shape-rendering="crispEdges" width="7.2413793" x="173.7931" y="36.206898"/>
<rect fill="black" height="7.2413793" shape-rendering="crispEdges" width="7.2413793" x="28.965517" y="43.448277"/>
<rect fill="black" height="7.2413793" shape-rendering="crispEdges" width="7.2413793" x="43.448277" y="43.448277"/>
<rect fill="black" height="7.2413793" shape-rendering="crispEdges" width="7.2413793" x="50.689655" y="43.448277"/>
<rect fill="black" height="7.2413793" shape-rendering="crispEdges" width="7.2413793" x="57.931034" y="43.448277"/>
<rect fill="black" height="7.2413793" shape-rendering="crispEdges" width="7.2413793" x="72.413795" y="43.448277"/>
<rect fill="black" height="7.2413793" shape-rendering="crispEdges" width="7.2413793" x="94.13793" y="43.448277"/>
<rect fill="black" height="7.2413793" shape-rendering="crispEdges" width="7.2413793" x="108.62069" y="43.448277"/>
<rect fill="black" height="7.2413793" shape-rendering="crispEdges" width="7.2413793" x="115.86207" y="43.448277"/>
<rect fill="black" height="7.2413793" shape-rendering="crispEdges" width="7.2413793" x="130.34483" y="43.448277"/>
<rect fill="black" height="7.2413793" shape-rendering="crispEdges" width="7.2413793" x="144.82759" y="43.448277"/>
<rect fill="black" height="7.2413793" shape-rendering="crispEdges" width="7.2413793" x="152.06897" y="43.448277"/>
<rect fill="black" height="7.2413793" shape-rendering="crispEdges" width="7.2413793" x="159.31035" y="43.448277"/>
<rect fill="black" height="7.2413793" shape-rendering="crispEdges" width="7.2413793" x="173.7931" y="43.448277"/>
<rect fill="black" height="7.2413793" shape-rendering="crispEdges" width="7.2413793" x="28.965517" y="50.689655"/>
<rect fill="black" height="7.2413793" shape-rendering="crispEdges" width="7.2413793" x="43.448277" y="50.689655"/>
<rect fill="black" height="7.2413793" shape-rendering="crispEdges" width="7.2413793" x="50.689655" y="50.689655"/>
<rect fill="black" height="7.2413793" shape-rendering="crispEdges" width="7.2413793" x="57.931034" y="50.689655"/>
<rect fill="black" height="7.2413793" shape-rendering="crispEdges" width="7.2413793" x="72.413795" y="50.689655"/>
<rect fill="black" height="7.2413793" shape-rendering="crispEdges" width="7.2413793" x="86.89655" y="50.689655"/>
<rect fill="black" height="7.2413793" shape-rendering="crispEdges" width="7.2413793" x="94.13793" y="50.689655"/>
<rect fill="black" height="7.2413793" shape-rendering="crispEdges" width="7.2413793" x="101.37931" y="50.689655"/>
<rect fill="black" height="7.2413793" shape-rendering="crispEdges" width="7.2413793" x="108.62069" y="50.689655"/>
<rect fill="black" height="7.2413793" shape-rendering="crispEdges" width="7.2413793" x="115.86207" y="50.689655"/>
<rect fill="black" height="7.2413793" shape-rendering="crispEdges" width="7.2413793" x="130.34483" y="50.689655"/>
<rect fill="black" height="7.2413793" shape-rendering="crispEdges" width="7.2413793" x="144.82759" y="50.689655"/>
<rect fill="black" height="7.2413793" shape-rendering="crispEdges" width="7.2413793" x="152.06897" y="50.689655"/>
<rect fill="black" height="7.2413793" shape-rendering="crispEdges" width="7.2413793" x="159.31035" y="50.689655"/>
<rect fill="black" height="7.2413793" shape-rendering="crispEdges" width="7.2413793" x="173.7931" y="50.689655"/>
<rect fill="black" height="7.2413793" shape-rendering="crispEdges" width="7.2413793" x="28.965517" y="57.931034"/>
<rect fill="black" height="7.2413793" shape-rendering="crispEdges" width="7.2413793" x="43.448277" y="57.931034"/>
<rect fill="black" height="7.2413793" shape-rendering="crispEdges" width="7.2413793" x="50.689655" y="57.931034"/>
<rect fill="black" height="7.2413793" shape-rendering="crispEdges" width="7.2413793" x="57.931034" y="57.931034"/>
<rect fill="black" height="7.2413793" shape-rendering="crispEdges" width="7.2413793" x="72.413795" y="57.931034"/>
<rect fill="black" height="7.2413793" shape-rendering="crispEdges" width="7.2413793" x="86.89655" y="57.931034"/>
<rect fill="black" height="7.2413793" shape-rendering="crispEdges" width="7.2413793" x="94.13793" y="57.931034"/>
<rect fill="black" height="7.2413793" shape-rendering="crispEdges" width="7.2413793" x="108.62069" y="57.931034"/>
<rect fill="black" height="7.2413793" shape-rendering="crispEdges" width="7.2413793" x="130.34483" y="57.931034"/>
<rect fill="black" height="7.2413793" shape-rendering="crispEdges" width="7.2413793" x="144.82759" y="57.931034"/>
<rect fill="black" height="7.2413793" shape-rendering="crispEdges" width="7.2413793" x="152.06897" y="57.931034"/>
<rect fill="black" height="7.2413793" shape-rendering="crispEdges" width="7.2413793" x="159.31035" y="57.931034"/>
<rect fill="black" height="7.2413793" shape-rendering="crispEdges" width="7.2413793" x="173.7931" y="57.931034"/>
<rect fill="black" height="7.2413793" shape-rendering="crispEdges" width="7.2413793" x="28.965517" y="65.17242"/>
<rect fill="black" height="7.2413793" shape-rendering="crispEdges" width="7.2413793" x="72.413795" y="65.17242"/>
<rect fill="black" height="7.2413793" shape-rendering="crispEdges" width="7.2413793" x="94.13793" y="65.17242"/>
<rect fill="black" height="7.2413793" shape-rendering="crispEdges" width="7.2413793" x="115.86207" y="65.17242"/>
<rect fill="black" height="7.2413793" shape-rendering="crispEdges" width="7.2413793" x="130.34483" y="65.17242"/>
<rect fill="black" height="7.2413793" shape-rendering="crispEdges" width="7.2413793" x="173.7931" y="65.17242"/>
<rect fill="black" height="7.2413793" shape-rendering="crispEdges" width="7.2413793" x="28.965517" y="72.413795"/>
<rect fill="black" height="7.2413793" shape-rendering="crispEdges" width="7.2413793" x="36.206898" y="72.413795"/>
<rect fill="black" height="7.2413793" shape-rendering="crispEdges" width="7.2413793" x="43.448277" y="72.413795"/>
<rect fill="black" height="7.2413793" shape-rendering="crispEdges" width="7.2413793" x="50.689655" y="72.413795"/>
<rect fill="black" height="7.2413793" shape-rendering="crispEdges" width="7.2413793" x="57.931034" y="72.413795"/>
<rect fill="black" height="7.2413793" shape-rendering="crispEdges" width="7.2413793" x="65.17242" y="72.413795"/>
<rect fill="black" height="7.2413793" shape-rendering="crispEdges" width="7.2413793" x="72.413795" y="72.413795"/>
<rect fill="black" height="7.2413793" shape-rendering="crispEdges" width="7.2413793" x="86.89655" y="72.413795"/>
<rect fill="black" height="7.2413793" shape-rendering="crispEdges" width="7.2413793" x="101.37931" y="72.413795"/>
<rect fill="black" height="7.2413793" shape-rendering="crispEdges" width="7.2413793" x="115.86207" y="72.413795"/>
<rect fill="black" height="7.2413793" shape-rendering="crispEdges" width="7.2413793" x="130.34483" y="72.413795"/>
<rect fill="black" height="7.2413793" shape-rendering="crispEdges" width="7.2413793" x="137.58621" y="72.413795"/>
<rect fill="black" height="7.2413793" shape-rendering="crispEdges" width="7.2413793" x="144.82759" y="72.413795"/>
<rect fill="black" height="7.2413793" shape-rendering="crispEdges" width="7.2413793" x="152.06897" y="72.413795"/>
<rect fill="black" height="7.2413793" shape-rendering="crispEdges" width="7.2413793" x="159.31035" y="72.413795"/>
<rect fill="black" height="7.2413793" shape-rendering="crispEdges" width="7.2413793" x="166.55173" y="72.413795"/>
<rect fill="black" height="7.2413793" shape-rendering="crispEdges" width="7.2413793" x="173.7931" y="72.413795"/>
<rect fill="black" height="7.2413793" shape-rendering="crispEdges" width="7.2413793" x="86.89655" y="79.655174"/>
<rect fill="black" height="7.2413793" shape-rendering="crispEdges" width="7.2413793" x="94.13793" y="79.655174"/>
<rect fill="black" height="7.2413793" shape-rendering="crispEdges" width="7.2413793" x="108.62069" y="79.655174"/>
<rect fill="black" height="7.2413793" shape-rendering="crispEdges" width="7.2413793" x="115.86207" y="79.655174"/>
<rect fill="black" height="7.2413793" shape-rendering="crispEdges" width="7.2413793" x="36.206898" y="86.89655"/>
<rect fill="black" height="7.2413793" shape-rendering="crispEdges" width="7.2413793" x="50.689655" y="86.89655"/>
<rect fill="black" height="7.2413793" shape-rendering="crispEdges" width="7.2413793" x="57.931034" y="86.89655"/>
<rect fill="black" height="7.2413793" shape-rendering="crispEdges" width="7.2413793" x="65.17242" y="86.89655"/>
<rect fill="black" height="7.2413793" shape-rendering="crispEdges" width="7.2413793" x="72.413795" y="86.89655"/>
<rect fill="black" height="7.2413793" shape-rendering="crispEdges" width="7.2413793" x="86.89655" y="86.89655"/>
<rect fill="black" height="7.2413793" shape-rendering="crispEdges" width="7.2413793" x="94.13793" y="86.89655"/>
<rect fill="black" height="7.2413793" shape-rendering="crispEdges" width="7.2413793" x="115.86207" y="86.89655"/>
<rect fill="black" height="7.2413793" shape-rendering="crispEdges" width="7.2413793" x="123.10345" y="86.89655"/>
<rect fill="black" height="7.2413793" shape-rendering="crispEdges" width="7.2413793" x="130.34483" y="86.89655"/>
<rect fill="black" height="7.2413793" shape-rendering="crispEdges" width="7.2413793" x="144.82759" y="86.89655"/>
<rect fill="black" height="7.2413793" shape-rendering="crispEdges" width="7.2413793" x="152.06897" y="86.89655"/>
<rect fill="black" height="7.2413793" shape-rendering="crispEdges" width="7.2413793" x="166.55173" y="86.89655"/>
<rect fill="black" height="7.2413793" shape-rendering="crispEdges" width="7.2413793" x="28.965517" y="94.13793"/>
<rect fill="black" height="7.2413793" shape-rendering="crispEdges" width="7.2413793" x="43.448277" y="94.13793"/>
<rect fill="black" height="7.2413793" shape-rendering="crispEdges" width="7.2413793" x="50.689655" y="94.13793"/>
<rect fill="black" height="7.2413793" shape-rendering="crispEdges" width="7.2413793" x="57.931034" y="94.13793"/>
<rect fill="black" height="7.2413793" shape-rendering="crispEdges" width="7.2413793" x="65.17242" y="94.13793"/>
<rect fill="black" height="7.2413793" shape-rendering="crispEdges" width="7.2413793" x="79.655174" y="94.13793"/>
<rect fill="black" height="7.2413793" shape-rendering="crispEdges" width="7.2413793" x="115.86207" y="94.13793"/>
<rect fill="black" height="7.2413793" shape-rendering="crispEdges" width="7.2413793" x="123.10345" y="94.13793"/>
<rect fill="black" height="7.2413793" shape-rendering="crispEdges" width="7.2413793" x="130.34483" y="94.13793"/>
<rect fill="black" height="7.2413793" shape-rendering="crispEdges" width="7.2413793" x="137.58621" y="94.13793"/>
<rect fill="black" height="7.2413793" shape-rendering="crispEdges" width="7.2413793" x="152.06897" y="94.13793"/>
<rect fill="black" height="7.2413793" shape-rendering="crispEdges" width="7.2413793" x="159.31035" y="94.13793"/>
<rect fill="black" height="7.2413793" shape-rendering="crispEdges" width="7.2413793" x="166.55173" y="94.13793"/>
<rect fill="black" height="7.2413793" shape-rendering="crispEdges" width="7.2413793" x="43.448277" y="101.37931"/>
<rect fill="black" height="7.2413793" shape-rendering="crispEdges" width="7.2413793" x="57.931034" y="101.37931"/>
<rect fill="black" height="7.2413793" shape-rendering="crispEdges" width="7.2413793" x="72.413795" y="101.37931"/>
<rect fill="black" height="7.2413793" shape-rendering="crispEdges" width="7.2413793" x="79.655174" y="101.37931"/>
<rect fill="black" height="7.2413793" shape-rendering="crispEdges" width="7.2413793" x="108.62069" y="101.37931"/>
<rect fill="black" height="7.2413793" shape-rendering="crispEdges" width="7.2413793" x="130.34483" y="101.37931"/>
<rect fill="black" height="7.2413793" shape-rendering="crispEdges" width="7.2413793" x="137.58621" y="101.37931"/>
<rect fill="black" height="7.2413793" shape-rendering="crispEdges" width="7.2413793" x="28.965517" y="108.62069"/>
<rect fill="black" height="7.2413793" shape-rendering="crispEdges" width="7.2413793" x="43.448277" y="108.62069"/>
<rect fill="black" height="7.2413793" shape-rendering="crispEdges" width="7.2413793" x="50.689655" y="108.62069"/>
<rect fill="black" height="7.2413793" shape-rendering="crispEdges" width="7.2413793" x="65.17242" y="108.62069"/>
<rect fill="black" height="7.2413793" shape-rendering="crispEdges" width="7.2413793" x="94.13793" y="108.62069"/>
<rect fill="black" height="7.2413793" shape-rendering="crispEdges" width="7.2413793" x="108.62069" y="108.62069"/>
<rect fill="black" height="7.2413793" shape-rendering="crispEdges" width="7.2413793" x="115.86207" y="108.62069"/>
<rect fill="black" height="7.2413793" shape-rendering="crispEdges" width="7.2413793" x="144.82759" y="108.62069"/>
<rect fill="black" height="7.2413793" shape-rendering="crispEdges" width="7.2413793" x="152.06897" y="108.62069"/>
<rect fill="black" height="7.2413793" shape-rendering="crispEdges" width="7.2413793" x="28.965517" y="115.86207"/>
<rect fill="black" height="7.2413793" shape-rendering="crispEdges" width="7.2413793" x="36.206898" y="115.86207"/>
<rect fill="black" height="7.2413793" shape-rendering="crispEdges" width="7.2413793" x="50.689655" y="115.86207"/>
<rect fill="black" height="7.2413793" shape-rendering="crispEdges" width="7.2413793" x="57.931034" y="115.86207"/>
<rect fill="black" height="7.2413793" shape-rendering="crispEdges" width="7.2413793" x="65.17242" y="115.86207"/>
<rect fill="black" height="7.2413793" shape-rendering="crispEdges" width="7.2413793" x="72.413795" y="115.86207"/>
<rect fill="black" height="7.2413793" shape-rendering="crispEdges" width="7.2413793" x="79.655174" y="115.86207"/>
<rect fill="black" height="7.2413793" shape-rendering="crispEdges" width="7.2413793" x="86.89655" y="115.86207"/>
<rect fill="black" height="7.2413793" shape-rendering="crispEdges" width="7.2413793" x="94.13793" y="115.86207"/>
<rect fill="black" height="7.2413793" shape-rendering="crispEdges" width="7.2413793" x="101.37931" y="115.86207"/>
<rect fill="black" height="7.2413793" shape-rendering="crispEdges" width="7.2413793" x="115.86207" y="115.86207"/>
<rect fill="black" height="7.2413793" shape-rendering="crispEdges" width="7.2413793" x="123.10345" y="115.86207"/>
<rect fill="black" height="7.2413793" shape-rendering="crispEdges" width="7.2413793" x="130.34483" y="115.86207"/>
<rect fill="black" height="7.2413793" shape-rendering="crispEdges" width="7.2413793" x="144.82759" y="115.86207"/>
<rect fill="black" height="7.2413793" shape-rendering="crispEdges" width="7.2413793" x="152.06897" y="115.86207"/>
<rect fill="black" height="7.2413793" shape-rendering="crispEdges" width="7.2413793" x="159.31035" y="115.86207"/>
<rect fill="black" height="7.2413793" shape-rendering="crispEdges" width="7.2413793" x="166.55173" y="115.86207"/>
<rect fill="black" height="7.2413793" shape-rendering="crispEdges" width="7.2413793" x="173.7931" y="115.86207"/>
<rect fill="black" height="7.2413793" shape-rendering="crispEdges" width="7.2413793" x="86.89655" y="123.10345"/>
<rect fill="black" height="7.2413793" shape-rendering="crispEdges" width="7.2413793" x="115.86207" y="123.10345"/>
<rect fill="black" height="7.2413793" shape-rendering="crispEdges" width="7.2413793" x="137.58621" y="123.10345"/>
<rect fill="black" height="7.2413793" shape-rendering="crispEdges" width="7.2413793" x="152.06897" y="123.10345"/>
<rect fill="black" height="7.2413793" shape-rendering="crispEdges" width="7.2413793" x="28.965517" y="130.34483"/>
<rect fill="black" height="7.2413793" shape-rendering="crispEdges" width="7.2413793" x="36.206898" y="130.34483"/>
<rect fill="black" height="7.2413793" shape-rendering="crispEdges" width="7.2413793" x="43.448277" y="130.34483"/>
<rect fill="black" height="7.2413793" shape-rendering="crispEdges" width="7.2413793" x="50.689655" y="130.34483"/>
<rect fill="black" height="7.2413793" shape-rendering="crispEdges" width="7.2413793" x="57.931034" y="130.34483"/>
<rect fill="black" height="7.2413793" shape-rendering="crispEdges" width="7.2413793" x="65.17242" y="130.34483"/>
<rect fill="black" height="7.2413793" shape-rendering="crispEdges" width="7.2413793" x="72.413795" y="130.34483"/>
<rect fill="black" height="7.2413793" shape-rendering="crispEdges" width="7.2413793" x="94.13793" y="130.34483"/>
<rect fill="black" height="7.2413793" shape-rendering="crispEdges" width="7.2413793" x="101.37931" y="130.34483"/>
<rect fill="black" height="7.2413793" shape-rendering="crispEdges" width="7.2413793" x="123.10345" y="130.34483"/>
<rect fill="black" height="7.2413793" shape-rendering="crispEdges" width="7.2413793" x="130.34483" y="130.34483"/>
<rect fill="black" height="7.2413793" shape-rendering="crispEdges" width="7.2413793" x="152.06897" y="130.34483"/>
<rect fill="black" height="7.2413793" shape-rendering="crispEdges" width="7.2413793" x="159.31035" y="130.34483"/>
<rect fill="black" height="7.2413793" shape-rendering="crispEdges" width="7.2413793" x="166.55173" y="130.34483"/>
<rect fill="black" height="7.2413793" shape-rendering="crispEdges" width="7.2413793" x="173.7931" y="130.34483"/>
<rect fill="black" height="7.2413793" shape-rendering="crispEdges" width="7.2413793" x="28.965517" y="137.58621"/>
<rect fill="black" height="7.2413793" shape-rendering="crispEdges" width="7.2413793" x="72.413795" y="137.58621"/>
<rect fill="black" height="7.2413793" shape-rendering="crispEdges" width="7.2413793" x="86.89655" y="137.58621"/>
<rect fill="black" height="7.2413793" shape-rendering="crispEdges" width="7.2413793" x="101.37931" y="137.58621"/>
<rect fill="black" height="7.2413793" shape-rendering="crispEdges" width="7.2413793" x="123.10345" y="137.58621"/>
<rect fill="black" height="7.2413793" shape-rendering="crispEdges" width="7.2413793" x="144.82759" y="137.58621"/>
<rect fill="black" height="7.2413793" shape-rendering="crispEdges" width="7.2413793" x="159.31035" y="137.58621"/>
<rect fill="black" height="7.2413793" shape-rendering="crispEdges" width="7.2413793" x="166.55173" y="137.58621"/>
<rect fill="black" height="7.2413793" shape-rendering="crispEdges" width="7.2413793" x="173.7931" y="137.58621"/>
<rect fill="black" height="7.2413793" shape-rendering="crispEdges" width="7.2413793" x="28.965517" y="144.82759"/>
<rect fill="black" height="7.2413793" shape-rendering="crispEdges" width="7.2413793" x="43.448277" y="144.82759"/>
<rect fill="black" height="7.2413793" shape-rendering="crispEdges" width="7.2413793" x="50.689655" y="144.82759"/>
<rect fill="black" height="7.2413793" shape-rendering="crispEdges" width="7.2413793" x="57.931034" y="144.82759"/>
<rect fill="black" height="7.2413793" shape-rendering="crispEdges" width="7.2413793" x="72.413795" y="144.82759"/>
<rect fill="black" height="7.2413793" shape-rendering="crispEdges" width="7.2413793" x="86.89655" y="144.82759"/>
<rect fill="black" height="7.2413793" shape-rendering="crispEdges" width="7.2413793" x="94.13793" y="144.82759"/>
<rect fill="black" height="7.2413793" shape-rendering="crispEdges" width="7.2413793" x="108.62069" y="144.82759"/>
<rect fill="black" height="7.2413793" shape-rendering="crispEdges" width="7.2413793" x="130.34483" y="144.82759"/>
<rect fill="black" height="7.2413793" shape-rendering="crispEdges" width="7.2413793" x="159.31035" y="144.82759"/>
<rect fill="black" height="7.2413793" shape-rendering="crispEdges" width="7.2413793" x="166.55173" y="144.82759"/>
<rect fill="black" height="7.2413793" shape-rendering="crispEdges" width="7.2413793" x="173.7931" y="144.82759"/>
<rect fill="black" height="7.2413793" shape-rendering="crispEdges" width="7.2413793" x="28.965517" y="152.06897"/>
<rect fill="black" height="7.2413793" shape-rendering="crispEdges" width="7.2413793" x="43.448277" y="152.06897"/>
<rect fill="black" height="7.2413793" shape-rendering="crispEdges" width="7.2413793" x="50.689655" y="152.06897"/>
<rect fill="black" height="7.2413793" shape-rendering="crispEdges" width="7.2413793" x="57.931034" y="152.06897"/>
<rect fill="black" height="7.2413793" shape-rendering="crispEdges" width="7.2413793" x="72.413795" y="152.06897"/>
<rect fill="black" height="7.2413793" shape-rendering="crispEdges" width="7.2413793" x="86.89655" y="152.06897"/>
<rect fill="black" height="7.2413793" shape-rendering="crispEdges" width="7.2413793" x="101.37931" y="152.06897"/>
<rect fill="black" height="7.2413793" shape-rendering="crispEdges" width="7.2413793" x="108.62069" y="152.06897"/>
<rect fill="black" height="7.2413793" shape-rendering="crispEdges" width="7.2413793" x="115.86207" y="152.06897"/>
<rect fill="black" height="7.2413793" shape-rendering="crispEdges" width="7.2413793" x="144.82759" y="152.06897"/>
<rect fill="black" height="7.2413793" shape-rendering="crispEdges" width="7.2413793" x="159.31035" y="152.06897"/>
<rect fill="black" height="7.2413793" shape-rendering="crispEdges" width="7.2413793" x="28.965517" y="159.31035"/>
<rect fill="black" height="7.2413793" shape-rendering="crispEdges" width="7.2413793" x="43.448277" y="159.31035"/>
<rect fill="black" height="7.2413793" shape-rendering="crispEdges" width="7.2413793" x="50.689655" y="159.31035"/>
<rect fill="black" height="7.2413793" shape-rendering="crispEdges" width="7.2413793" x="57.931034" y="159.31035"/>
<rect fill="black" height="7.2413793" shape-rendering="crispEdges" width="7.2413793" x="72.413795" y="159.31035"/>
<rect fill="black" height="7.2413793" shape-rendering="crispEdges" width="7.2413793" x="94.13793" y="159.31035"/>
<rect fill="black" height="7.2413793" shape-rendering="crispEdges" width="7.2413793" x="130.34483" y="159.31035"/>
<rect fill="black" height="7.2413793" shape-rendering="crispEdges" width="7.2413793" x="166.55173" y="159.31035"/>
<rect fill="black" height="7.2413793" shape-rendering="crispEdges" width="7.2413793" x="173.7931" y="159.31035"/>
<rect fill="black" height="7.2413793" shape-rendering="crispEdges" width="7.2413793" x="28.965517" y="166.55173"/>
<rect fill="black" height="7.2413793" shape-rendering="crispEdges" width="7.2413793" x="72.413795" y="166.55173"/>
<rect fill="black" height="7.2413793" shape-rendering="crispEdges" width="7.2413793" x="86.89655" y="166.55173"/>
<rect fill="black" height="7.2413793" shape-rendering="crispEdges" width="7.2413793" x="94.13793" y="166.55173"/>
<rect fill="black" height="7.2413793" shape-rendering="crispEdges" width="7.2413793" x="101.37931" y="166.55173"/>
<rect fill="black" height="7.2413793" shape-rendering="crispEdges" width="7.2413793" x="123.10345" y="166.55173"/>
<rect fill="black" height="7.2413793" shape-rendering="crispEdges" width="7.2413793" x="130.34483" y="166.55173"/>
<rect fill="black" height="7.2413793" shape-rendering="crispEdges" width="7.2413793" x="137.58621" y="166.55173"/>
<rect fill="black" height="7.2413793" shape-rendering="crispEdges" width="7.2413793" x="159.31035" y="166.55173"/>
<rect fill="black" height="7.2413793" shape-rendering="crispEdges" width="7.2413793" x="166.55173" y="166.55173"/>
<rect fill="black" height="7.2413793" shape-rendering="crispEdges" width="7.2413793" x="28.965517" y="173.7931"/>
<rect fill="black" height="7.2413793" shape-rendering="crispEdges" width="7.2413793" x="36.206898" y="173.7931"/>
<rect fill="black" height="7.2413793" shape-rendering="crispEdges" width="7.2413793" x="43.448277" y="173.7931"/>
<rect fill="black" height="7.2413793" shape-rendering="crispEdges" width="7.2413793" x="50.689655" y="173.7931"/>
<rect fill="black" height="7.2413793" shape-rendering="crispEdges" width="7.2413793" x="57.931034" y="173.7931"/>
<rect fill="black" height="7.2413793" shape-rendering="crispEdges" width="7.2413793" x="65.17242" y="173.7931"/>
<rect fill="black" height="7.2413793" shape-rendering="crispEdges" width="7.2413793" x="72.413795" y="173.7931"/>
<rect fill="black" height="7.2413793" shape-rendering="crispEdges" width="7.2413793" x="94.13793" y="173.7931"/>
<rect fill="black" height="7.2413793" shape-rendering="crispEdges" width="7.2413793" x="108.62069" y="173.7931"/>
<rect fill="black" height="7.2413793" shape-rendering="crispEdges" width="7.2413793" x="166.55173" y="173.7931"/>
</svg>