<svg viewBox="0 0 58 58" xmlns="http://www.w3.org/2000/svg">
<rect height="2" width="2" x="16" y="16"/>
<rect height="2" width="2" x="18" y="16"/>
<rect height="2" width="2" x="20" y="16"/>
<rect height="2" width="2" x="22" y="16"/>
<rect height="2" width="2" x="24" y="16"/>
<rect height="2" width="2" x="26" y="16"/>
<rect height="2" width="2" x="28" y="16"/>
<rect height="2" width="2" x="30" y="16"/>
<rect height="2" width="2" x="32" y="16"/>
<rect height="2" width="2" x="34" y="16"/>
<rect height="2" width="2" x="36" y="16"/>
<rect height="2" width="2" x="38" y="16"/>
<rect height="2" width="2" x="40" y="16"/>
<rect height="2" width="2" x="42" y="16"/>
<rect height="2" width="2" x="62" y="16"/>
<rect height="2" width="2" x="64" y="16"/>
<rect height="2" width="2" x="74" y="16"/>
<rect height="2" width="2" x="76" y="16"/>
<rect height="2" width="2" x="78" y="16"/>
<rect height="2" width="2" x="80" y="16"/>
<rect height="2" width="2" x="82" y="16"/>
<rect height="2" width="2" x="84" y="16"/>
<rect height="2" width="2" x="86" y="16"/>
<rect height="2" width="2" x="88" y="16"/>
<rect height="2" width="2" x="90" y="16"/>
<rect height="2" width="2" x="92" y="16"/>
<rect height="2" width="2" x="94" y="16"/>
<rect height="2" width="2" x="96" y="16"/>
<rect height="2" width="2" x="98" y="16"/>
<rect height="2" width="2" x="100" y="16"/>
<rect height="2" width="2" x="16" y="18"/>
<rect height="2" width="2" x="18" y="18"/>
<rect height="2" width="2" x="20" y="18"/>
<rect height="2" width="2" x="22" y="18"/>
<rect height="2" width="2" x="24" y="18"/>
<rect height="2" width="2" x="26" y="18"/>
<rect height="2" width="2" x="28" y="18"/>
<rect height="2" width="2" x="30" y="18"/>
<rect height="2" width="2" x="32" y="18"/>
<rect height="2" width="2" x="34" y="18"/>
<rect height="2" width="2" x="36" y="18"/>
<rect height="2" width="2" x="38" y="18"/>
<rect height="2" width="2" x="40" y="18"/>
<rect height="2" width="2" x="42" y="18"/>
<rect height="2" width="2" x="62" y="18"/>
<rect height="2" width="2" x="64" y="18"/>
<rect height="2" width="2" x="74" y="18"/>
<rect height="2" width="2" x="76" y="18"/>
<rect height="2" width="2" x="78" y="18"/>
<rect height="2" width="2" x="80" y="18"/>
<rect height="2" width="2" x="82" y="18"/>
<rect height="2" width="2" x="84" y="18"/>
<rect height="2" width="2" x="86" y="18"/>
<rect height="2" width="2" x="88" y="18"/>
<rect height="2" width="2" x="90" y="18"/>
<rect height="2" width="2" x="92" y="18"/>
<rect height="2" width="2" x="94" y="18"/>
<rect height="2" width="2" x="96" y="18"/>
<rect height="2" width="2" x="98" y="18"/>
<rect height="2" width="2" x="100" y="18"/>
<rect height="2" width="2" x="16" y="20"/>
<rect height="2" width="2" x="18" y="20"/>
<rect height="2" width="2" x="40" y="20"/>
<rect height="2" width="2" x="42" y="20"/>
<rect height="2" width="2" x="48" y="20"/>
<rect height="2" width="2" x="50" y="20"/>
<rect height="2" width="2" x="52" y="20"/>
<rect height="2" width="2" x="54" y="20"/>
<rect height="2" width="2" x="66" y="20"/>
<rect height="2" width="2" x="68" y="20"/>
<rect height="2" width="2" x="74" y="20"/>
<rect height="2" width="2" x="76" y="20"/>
<rect height="2" width="2" x="98" y="20"/>
<rect height="2" width="2" x="100" y="20"/>
<rect height="2" width="2" x="16" y="22"/>
<rect height="2" width="2" x="18" y="22"/>
<rect height="2" width="2" x="40" y="22"/>
<rect height="2" width="2" x="42" y="22"/>
<rect height="2" width="2" x="48" y="22"/>
<rect height="2" width="2" x="50" y="22"/>
<rect height="2" width="2" x="52" y="22"/>
<rect height="2" width="2" x="54" y="22"/>
<rect height="2" width="2" x="66" y="22"/>
<rect height="2" width="2" x="68" y="22"/>
<rect height="2" width="2" x="74" y="22"/>
<rect height="2" width="2" x="76" y="22"/>
<rect height="2" width="2" x="98" y="22"/>
<rect height="2" width="2" x="100" y="22"/>
<rect height="2" width="2" x="16" y="24"/>
<rect height="2" width="2" x="18" y="24"/>
<rect height="2" width="2" x="24" y="24"/>
<rect height="2" width="2" x="26" y="24"/>
<rect height="2" width="2" x="28" y="24"/>
<rect height="2" width="2" x="30" y="24"/>
<rect height="2" width="2" x="32" y="24"/>
<rect height="2" width="2" x="34" y="24"/>
<rect height="2" width="2" x="40" y="24"/>
<rect height="2" width="2" x="42" y="24"/>
<rect height="2" width="2" x="52" y="24"/>
<rect height="2" width="2" x="54" y="24"/>
<rect height="2" width="2" x="62" y="24"/>
<rect height="2" width="2" x="64" y="24"/>
<rect height="2" width="2" x="66" y="24"/>
<rect height="2" width="2" x="68" y="24"/>
<rect height="2" width="2" x="74" y="24"/>
<rect height="2" width="2" x="76" y="24"/>
<rect height="2" width="2" x="82" y="24"/>
<rect height="2" width="2" x="84" y="24"/>
<rect height="2" width="2" x="86" y="24"/>
<rect height="2" width="2" x="88" y="24"/>
<rect height="2" width="2" x="90" y="24"/>
<rect height="2" width="2" x="92" y="24"/>
<rect height="2" width="2" x="98" y="24"/>
<rect height="2" width="2" x="100" y="24"/>
<rect height="2" width="2" x="16" y="26"/>
<rect height="2" width="2" x="18" y="26"/>
<rect height="2" width="2" x="24" y="26"/>
<rect height="2" width="2" x="26" y="26"/>
<rect height="2" width="2" x="28" y="26"/>
<rect height="2" width="2" x="30" y="26"/>
<rect height="2" width="2" x="32" y="26"/>
<rect height="2" width="2" x="34" y="26"/>
<rect height="2" width="2" x="40" y="26"/>
<rect height="2" width="2" x="42" y="26"/>
<rect height="2" width="2" x="52" y="26"/>
<rect height="2" width="2" x="54" y="26"/>
<rect height="2" width="2" x="62" y="26"/>
<rect height="2" width="2" x="64" y="26"/>
<rect height="2" width="2" x="66" y="26"/>
<rect height="2" width="2" x="68" y="26"/>
<rect height="2" width="2" x="74" y="26"/>
<rect height="2" width="2" x="76" y="26"/>
<rect height="2" width="2" x="82" y="26"/>
<rect height="2" width="2" x="84" y="26"/>
<rect height="2" width="2" x="86" y="26"/>
<rect height="2" width="2" x="88" y="26"/>
<rect height="2" width="2" x="90" y="26"/>
<rect height="2" width="2" x="92" y="26"/>
<rect height="2" width="2" x="98" y="26"/>
<rect height="2" width="2" x="100" y="26"/>
<rect height="2" width="2" x="16" y="28"/>
<rect height="2" width="2" x="18" y="28"/>
<rect height="2" width="2" x="24" y="28"/>
<rect height="2" width="2" x="26" y="28"/>
<rect height="2" width="2" x="28" y="28"/>
<rect height="2" width="2" x="30" y="28"/>
<rect height="2" width="2" x="32" y="28"/>
<rect height="2" width="2" x="34" y="28"/>
<rect height="2" width="2" x="40" y="28"/>
<rect height="2" width="2" x="42" y="28"/>
<rect height="2" width="2" x="48" y="28"/>
<rect height="2" width="2" x="50" y="28"/>
<rect height="2" width="2" x="52" y="28"/>
<rect height="2" width="2" x="54" y="28"/>
<rect height="2" width="2" x="56" y="28"/>
<rect height="2" width="2" x="58" y="28"/>
<rect height="2" width="2" x="60" y="28"/>
<rect height="2" width="2" x="62" y="28"/>
<rect height="2" width="2" x="64" y="28"/>
<rect height="2" width="2" x="66" y="28"/>
<rect height="2" width="2" x="68" y="28"/>
<rect height="2" width="2" x="74" y="28"/>
<rect height="2" width="2" x="76" y="28"/>
<rect height="2" width="2" x="82" y="28"/>
<rect height="2" width="2" x="84" y="28"/>
<rect height="2" width="2" x="86" y="28"/>
<rect height="2" width="2" x="88" y="28"/>
<rect height="2" width="2" x="90" y="28"/>
<rect height="2" width="2" x="92" y="28"/>
<rect height="2" width="2" x="98" y="28"/>
<rect height="2" width="2" x="100" y="28"/>
<rect height="2" width="2" x="16" y="30"/>
<rect height="2" width="2" x="18" y="30"/>
<rect height="2" width="2" x="24" y="30"/>
<rect height="2" width="2" x="26" y="30"/>
<rect height="2" width="2" x="28" y="30"/>
<rect height="2" width="2" x="30" y="30"/>
<rect height="2" width="2" x="32" y="30"/>
<rect height="2" width="2" x="34" y="30"/>
<rect height="2" width="2" x="40" y="30"/>
<rect height="2" width="2" x="42" y="30"/>
<rect height="2" width="2" x="48" y="30"/>
<rect height="2" width="2" x="50" y="30"/>
<rect height="2" width="2" x="52" y="30"/>
<rect height="2" width="2" x="54" y="30"/>
<rect height="2" width="2" x="56" y="30"/>
<rect height="2" width="2" x="58" y="30"/>
<rect height="2" width="2" x="60" y="30"/>
<rect height="2" width="2" x="62" y="30"/>
<rect height="2" width="2" x="64" y="30"/>
<rect height="2" width="2" x="66" y="30"/>
<rect height="2" width="2" x="68" y="30"/>
<rect height="2" width="2" x="74" y="30"/>
<rect height="2" width="2" x="76" y="30"/>
<rect height="2" width="2" x="82" y="30"/>
<rect height="2" width="2" x="84" y="30"/>
<rect height="2" width="2" x="86" y="30"/>
<rect height="2" width="2" x="88" y="30"/>
<rect height="2" width="2" x="90" y="30"/>
<rect height="2" width="2" x="92" y="30"/>
<rect height="2" width="2" x="98" y="30"/>
<rect height="2" width="2" x="100" y="30"/>
<rect height="2" width="2" x="16" y="32"/>
<rect height="2" width="2" x="18" y="32"/>
<rect height="2" width="2" x="24" y="32"/>
<rect height="2" width="2" x="26" y="32"/>
<rect height="2" width="2" x="28" y="32"/>
<rect height="2" width="2" x="30" y="32"/>
<rect height="2" width="2" x="32" y="32"/>
<rect height="2" width="2" x="34" y="32"/>
<rect height="2" width="2" x="40" y="32"/>
<rect height="2" width="2" x="42" y="32"/>
<rect height="2" width="2" x="48" y="32"/>
<rect height="2" width="2" x="50" y="32"/>
<rect height="2" width="2" x="52" y="32"/>
<rect height="2" width="2" x="54" y="32"/>
<rect height="2" width="2" x="62" y="32"/>
<rect height="2" width="2" x="64" y="32"/>
<rect height="2" width="2" x="74" y="32"/>
<rect height="2" width="2" x="76" y="32"/>
<rect height="2" width="2" x="82" y="32"/>
<rect height="2" width="2" x="84" y="32"/>
<rect height="2" width="2" x="86" y="32"/>
<rect height="2" width="2" x="88" y="32"/>
<rect height="2" width="2" x="90" y="32"/>
<rect height="2" width="2" x="92" y="32"/>
<rect height="2" width="2" x="98" y="32"/>
<rect height="2" width="2" x="100" y="32"/>
<rect height="2" width="2" x="16" y="34"/>
<rect height="2" width="2" x="18" y="34"/>
<rect height="2" width="2" x="24" y="34"/>
<rect height="2" width="2" x="26" y="34"/>
<rect height="2" width="2" x="28" y="34"/>
<rect height="2" width="2" x="30" y="34"/>
<rect height="2" width="2" x="32" y="34"/>
<rect height="2" width="2" x="34" y="34"/>
<rect height="2" width="2" x="40" y="34"/>
<rect height="2" width="2" x="42" y="34"/>
<rect height="2" width="2" x="48" y="34"/>
<rect height="2" width="2" x="50" y="34"/>
<rect height="2" width="2" x="52" y="34"/>
<rect height="2" width="2" x="54" y="34"/>
<rect height="2" width="2" x="62" y="34"/>
<rect height="2" width="2" x="64" y="34"/>
<rect height="2" width="2" x="74" y="34"/>
<rect height="2" width="2" x="76" y="34"/>
<rect height="2" width="2" x="82" y="34"/>
<rect height="2" width="2" x="84" y="34"/>
<rect height="2" width="2" x="86" y="34"/>
<rect height="2" width="2" x="88" y="34"/>
<rect height="2" width="2" x="90" y="34"/>
<rect height="2" width="2" x="92" y="34"/>
<rect height="2" width="2" x="98" y="34"/>
<rect height="2" width="2" x="100" y="34"/>
<rect height="2" width="2" x="16" y="36"/>
<rect height="2" width="2" x="18" y="36"/>
<rect height="2" width="2" x="40" y="36"/>
<rect height="2" width="2" x="42" y="36"/>
<rect height="2" width="2" x="52" y="36"/>
<rect height="2" width="2" x="54" y="36"/>
<rect height="2" width="2" x="66" y="36"/>
<rect height="2" width="2" x="68" y="36"/>
<rect height="2" width="2" x="74" y="36"/>
<rect height="2" width="2" x="76" y="36"/>
<rect height="2" width="2" x="98" y="36"/>
<rect height="2" width="2" x="100" y="36"/>
<rect height="2" width="2" x="16" y="38"/>
<rect height="2" width="2" x="18" y="38"/>
<rect height="2" width="2" x="40" y="38"/>
<rect height="2" width="2" x="42" y="38"/>
<rect height="2" width="2" x="52" y="38"/>
<rect height="2" width="2" x="54" y="38"/>
<rect height="2" width="2" x="66" y="38"/>
<rect height="2" width="2" x="68" y="38"/>
<rect height="2" width="2" x="74" y="38"/>
<rect height="2" width="2" x="76" y="38"/>
<rect height="2" width="2" x="98" y="38"/>
<rect height="2" width="2" x="100" y="38"/>
<rect height="2" width="2" x="16" y="40"/>
<rect height="2" width="2" x="18" y="40"/>
<rect height="2" width="2" x="20" y="40"/>
<rect height="2" width="2" x="22" y="40"/>
<rect height="2" width="2" x="24" y="40"/>
<rect height="2" width="2" x="26" y="40"/>
<rect height="2" width="2" x="28" y="40"/>
<rect height="2" width="2" x="30" y="40"/>
<rect height="2" width="2" x="32" y="40"/>
<rect height="2" width="2" x="34" y="40"/>
<rect height="2" width="2" x="36" y="40"/>
<rect height="2" width="2" x="38" y="40"/>
<rect height="2" width="2" x="40" y="40"/>
<rect height="2" width="2" x="42" y="40"/>
<rect height="2" width="2" x="48" y="40"/>
<rect height="2" width="2" x="50" y="40"/>
<rect height="2" width="2" x="56" y="40"/>
<rect height="2" width="2" x="58" y="40"/>
<rect height="2" width="2" x="60" y="40"/>
<rect height="2" width="2" x="66" y="40"/>
<rect height="2" width="2" x="68" y="40"/>
<rect height="2" width="2" x="74" y="40"/>
<rect height="2" width="2" x="76" y="40"/>
<rect height="2" width="2" x="78" y="40"/>
<rect height="2" width="2" x="80" y="40"/>
<rect height="2" width="2" x="82" y="40"/>
<rect height="2" width="2" x="84" y="40"/>
<rect height="2" width="2" x="86" y="40"/>
<rect height="2" width="2" x="88" y="40"/>
<rect height="2" width="2" x="90" y="40"/>
<rect height="2" width="2" x="92" y="40"/>
<rect height="2" width="2" x="94" y="40"/>
<rect height="2" width="2" x="96" y="40"/>
<rect height="2" width="2" x="98" y="40"/>
<rect height="2" width="2" x="100" y="40"/>
<rect height="2" width="2" x="16" y="42"/>
<rect height="2" width="2" x="18" y="42"/>
<rect height="2" width="2" x="20" y="42"/>
<rect height="2" width="2" x="22" y="42"/>
<rect height="2" width="2" x="24" y="42"/>
<rect height="2" width="2" x="26" y="42"/>
<rect height="2" width="2" x="28" y="42"/>
<rect height="2" width="2" x="30" y="42"/>
<rect height="2" width="2" x="32" y="42"/>
<rect height="2" width="2" x="34" y="42"/>
<rect height="2" width="2" x="36" y="42"/>
<rect height="2" width="2" x="38" y="42"/>
<rect height="2" width="2" x="40" y="42"/>
<rect height="2" width="2" x="42" y="42"/>
<rect height="2" width="2" x="48" y="42"/>
<rect height="2" width="2" x="50" y="42"/>
<rect height="2" width="2" x="56" y="42"/>
<rect height="2" width="2" x="58" y="42"/>
<rect height="2" width="2" x="60" y="42"/>
<rect height="2" width="2" x="66" y="42"/>
<rect height="2" width="2" x="68" y="42"/>
<rect height="2" width="2" x="74" y="42"/>
<rect height="2" width="2" x="76" y="42"/>
<rect height="2" width="2" x="78" y="42"/>
<rect height="2" width="2" x="80" y="42"/>
<rect height="2" width="2" x="82" y="42"/>
<rect height="2" width="2" x="84" y="42"/>
<rect height="2" width="2" x="86" y="42"/>
<rect height="2" width="2" x="88" y="42"/>
<rect height="2" width="2" x="90" y="42"/>
<rect height="2" width="2" x="92" y="42"/>
<rect height="2" width="2" x="94" y="42"/>
<rect height="2" width="2" x="96" y="42"/>
<rect height="2" width="2" x="98" y="42"/>
<rect height="2" width="2" x="100" y="42"/>
<rect height="2" width="2" x="48" y="44"/>
<rect height="2" width="2" x="50" y="44"/>
<rect height="2" width="2" x="52" y="44"/>
<rect height="2" width="2" x="54" y="44"/>
<rect height="2" width="2" x="62" y="44"/>
<rect height="2" width="2" x="64" y="44"/>
<rect height="2" width="2" x="66" y="44"/>
<rect height="2" width="2" x="68" y="44"/>
<rect height="2" width="2" x="48" y="46"/>
<rect height="2" width="2" x="50" y="46"/>
<rect height="2" width="2" x="52" y="46"/>
<rect height="2" width="2" x="54" y="46"/>
<rect height="2" width="2" x="62" y="46"/>
<rect height="2" width="2" x="64" y="46"/>
<rect height="2" width="2" x="66" y="46"/>
<rect height="2" width="2" x="68" y="46"/>
<rect height="2" width="2" x="20" y="48"/>
<rect height="2" width="2" x="22" y="48"/>
<rect height="2" width="2" x="28" y="48"/>
<rect height="2" width="2" x="30" y="48"/>
<rect height="2" width="2" x="32" y="48"/>
<rect height="2" width="2" x="34" y="48"/>
<rect height="2" width="2" x="36" y="48"/>
<rect height="2" width="2" x="38" y="48"/>
<rect height="2" width="2" x="40" y="48"/>
<rect height="2" width="2" x="42" y="48"/>
<rect height="2" width="2" x="48" y="48"/>
<rect height="2" width="2" x="50" y="48"/>
<rect height="2" width="2" x="52" y="48"/>
<rect height="2" width="2" x="54" y="48"/>
<rect height="2" width="2" x="66" y="48"/>
<rect height="2" width="2" x="68" y="48"/>
<rect height="2" width="2" x="70" y="48"/>
<rect height="2" width="2" x="72" y="48"/>
<rect height="2" width="2" x="74" y="48"/>
<rect height="2" width="2" x="76" y="48"/>
<rect height="2" width="2" x="82" y="48"/>
<rect height="2" width="2" x="84" y="48"/>
<rect height="2" width="2" x="86" y="48"/>
<rect height="2" width="2" x="88" y="48"/>
<rect height="2" width="2" x="94" y="48"/>
<rect height="2" width="2" x="96" y="48"/>
<rect height="2" width="2" x="20" y="50"/>
<rect height="2" width="2" x="22" y="50"/>
<rect height="2" width="2" x="28" y="50"/>
<rect height="2" width="2" x="30" y="50"/>
<rect height="2" width="2" x="32" y="50"/>
<rect height="2" width="2" x="34" y="50"/>
<rect height="2" width="2" x="36" y="50"/>
<rect height="2" width="2" x="38" y="50"/>
<rect height="2" width="2" x="40" y="50"/>
<rect height="2" width="2" x="42" y="50"/>
<rect height="2" width="2" x="48" y="50"/>
<rect height="2" width="2" x="50" y="50"/>
<rect height="2" width="2" x="52" y="50"/>
<rect height="2" width="2" x="54" y="50"/>
<rect height="2" width="2" x="66" y="50"/>
<rect height="2" width="2" x="68" y="50"/>
<rect height="2" width="2" x="70" y="50"/>
<rect height="2" width="2" x="72" y="50"/>
<rect height="2" width="2" x="74" y="50"/>
<rect height="2" width="2" x="76" y="50"/>
<rect height="2" width="2" x="82" y="50"/>
<rect height="2" width="2" x="84" y="50"/>
<rect height="2" width="2" x="86" y="50"/>
<rect height="2" width="2" x="88" y="50"/>
<rect height="2" width="2" x="94" y="50"/>
<rect height="2" width="2" x="96" y="50"/>
<rect height="2" width="2" x="16" y="52"/>
<rect height="2" width="2" x="18" y="52"/>
<rect height="2" width="2" x="24" y="52"/>
<rect height="2" width="2" x="26" y="52"/>
<rect height="2" width="2" x="28" y="52"/>
<rect height="2" width="2" x="30" y="52"/>
<rect height="2" width="2" x="32" y="52"/>
<rect height="2" width="2" x="34" y="52"/>
<rect height="2" width="2" x="36" y="52"/>
<rect height="2" width="2" x="38" y="52"/>
<rect height="2" width="2" x="44" y="52"/>
<rect height="2" width="2" x="46" y="52"/>
<rect height="2" width="2" x="66" y="52"/>
<rect height="2" width="2" x="68" y="52"/>
<rect height="2" width="2" x="70" y="52"/>
<rect height="2" width="2" x="72" y="52"/>
<rect height="2" width="2" x="74" y="52"/>
<rect height="2" width="2" x="76" y="52"/>
<rect height="2" width="2" x="78" y="52"/>
<rect height="2" width="2" x="80" y="52"/>
<rect height="2" width="2" x="86" y="52"/>
<rect height="2" width="2" x="88" y="52"/>
<rect height="2" width="2" x="90" y="52"/>
<rect height="2" width="2" x="92" y="52"/>
<rect height="2" width="2" x="94" y="52"/>
<rect height="2" width="2" x="96" y="52"/>
<rect height="2" width="2" x="16" y="54"/>
<rect height="2" width="2" x="18" y="54"/>
<rect height="2" width="2" x="24" y="54"/>
<rect height="2" width="2" x="26" y="54"/>
<rect height="2" width="2" x="28" y="54"/>
<rect height="2" width="2" x="30" y="54"/>
<rect height="2" width="2" x="32" y="54"/>
<rect height="2" width="2" x="34" y="54"/>
<rect height="2" width="2" x="36" y="54"/>
<rect height="2" width="2" x="38" y="54"/>
<rect height="2" width="2" x="44" y="54"/>
<rect height="2" width="2" x="46" y="54"/>
<rect height="2" width="2" x="66" y="54"/>
<rect height="2" width="2" x="68" y="54"/>
<rect height="2" width="2" x="70" y="54"/>
<rect height="2" width="2" x="72" y="54"/>
<rect height="2" width="2" x="74" y="54"/>
<rect height="2" width="2" x="76" y="54"/>
<rect height="2" width="2" x="78" y="54"/>
<rect height="2" width="2" x="80" y="54"/>
<rect height="2" width="2" x="86" y="54"/>
<rect height="2" width="2" x="88" y="54"/>
<rect height="2" width="2" x="90" y="54"/>
<rect height="2" width="2" x="92" y="54"/>
<rect height="2" width="2" x="94" y="54"/>
<rect height="2" width="2" x="96" y="54"/>
<rect height="2" width="2" x="24" y="56"/>
<rect height="2" width="2" x="26" y="56"/>
<rect height="2" width="2" x="32" y="56"/>
<rect height="2" width="2" x="34" y="56"/>
<rect height="2" width="2" x="40" y="56"/>
<rect height="2" width="2" x="42" y="56"/>
<rect height="2" width="2" x="44" y="56"/>
<rect height="2" width="2" x="46" y="56"/>
<rect height="2" width="2" x="62" y="56"/>
<rect height="2" width="2" x="64" y="56"/>
<rect height="2" width="2" x="74" y="56"/>
<rect height="2" width="2" x="76" y="56"/>
<rect height="2" width="2" x="78" y="56"/>
<rect height="2" width="2" x="80" y="56"/>
<rect height="2" width="2" x="24" y="58"/>
<rect height="2" width="2" x="26" y="58"/>
<rect height="2" width="2" x="32" y="58"/>
<rect height="2" width="2" x="34" y="58"/>
<rect height="2" width="2" x="40" y="58"/>
<rect height="2" width="2" x="42" y="58"/>
<rect height="2" width="2" x="44" y="58"/>
<rect height="2" width="2" x="46" y="58"/>
<rect height="2" width="2" x="62" y="58"/>
<rect height="2" width="2" x="64" y="58"/>
<rect height="2" width="2" x="74" y="58"/>
<rect height="2" width="2" x="76" y="58"/>
<rect height="2" width="2" x="78" y="58"/>
<rect height="2" width="2" x="80" y="58"/>
<rect height="2" width="2" x="24" y="60"/>
<rect height="2" width="2" x="26" y="60"/>
<rect height="2" width="2" x="32" y="60"/>
<rect height="2" width="2" x="34" y="60"/>
<rect height="2" width="2" x="40" y="60"/>
<rect height="2" width="2" x="42" y="60"/>
<rect height="2" width="2" x="44" y="60"/>
<rect height="2" width="2" x="46" y="60"/>
<rect height="2" width="2" x="62" y="60"/>
<rect height="2" width="2" x="64" y="60"/>
<rect height="2" width="2" x="74" y="60"/>
<rect height="2" width="2" x="76" y="60"/>
<rect height="2" width="2" x="78" y="60"/>
<rect height="2" width="2" x="80" y="60"/>
<rect height="2" width="2" x="16" y="62"/>
<rect height="2" width="2" x="18" y="62"/>
<rect height="2" width="2" x="24" y="62"/>
<rect height="2" width="2" x="26" y="62"/>
<rect height="2" width="2" x="28" y="62"/>
<rect height="2" width="2" x="30" y="62"/>
<rect height="2" width="2" x="36" y="62"/>
<rect height="2" width="2" x="38" y="62"/>
<rect height="2" width="2" x="52" y="62"/>
<rect height="2" width="2" x="54" y="62"/>
<rect height="2" width="2" x="62" y="62"/>
<rect height="2" width="2" x="64" y="62"/>
<rect height="2" width="2" x="66" y="62"/>
<rect height="2" width="2" x="68" y="62"/>
<rect height="2" width="2" x="82" y="62"/>
<rect height="2" width="2" x="84" y="62"/>
<rect height="2" width="2" x="86" y="62"/>
<rect height="2" width="2" x="88" y="62"/>
<rect height="2" width="2" x="16" y="64"/>
<rect height="2" width="2" x="18" y="64"/>
<rect height="2" width="2" x="24" y="64"/>
<rect height="2" width="2" x="26" y="64"/>
<rect height="2" width="2" x="28" y="64"/>
<rect height="2" width="2" x="30" y="64"/>
<rect height="2" width="2" x="36" y="64"/>
<rect height="2" width="2" x="38" y="64"/>
<rect height="2" width="2" x="52" y="64"/>
<rect height="2" width="2" x="54" y="64"/>
<rect height="2" width="2" x="62" y="64"/>
<rect height="2" width="2" x="64" y="64"/>
<rect height="2" width="2" x="66" y="64"/>
<rect height="2" width="2" x="68" y="64"/>
<rect height="2" width="2" x="82" y="64"/>
<rect height="2" width="2" x="84" y="64"/>
<rect height="2" width="2" x="86" y="64"/>
<rect height="2" width="2" x="88" y="64"/>
<rect height="2" width="2" x="16" y="66"/>
<rect height="2" width="2" x="18" y="66"/>
<rect height="2" width="2" x="20" y="66"/>
<rect height="2" width="2" x="22" y="66"/>
<rect height="2" width="2" x="28" y="66"/>
<rect height="2" width="2" x="30" y="66"/>
<rect height="2" width="2" x="32" y="66"/>
<rect height="2" width="2" x="34" y="66"/>
<rect height="2" width="2" x="36" y="66"/>
<rect height="2" width="2" x="38" y="66"/>
<rect height="2" width="2" x="40" y="66"/>
<rect height="2" width="2" x="42" y="66"/>
<rect height="2" width="2" x="44" y="66"/>
<rect height="2" width="2" x="46" y="66"/>
<rect height="2" width="2" x="48" y="66"/>
<rect height="2" width="2" x="50" y="66"/>
<rect height="2" width="2" x="52" y="66"/>
<rect height="2" width="2" x="54" y="66"/>
<rect height="2" width="2" x="56" y="66"/>
<rect height="2" width="2" x="58" y="66"/>
<rect height="2" width="2" x="60" y="66"/>
<rect height="2" width="2" x="66" y="66"/>
<rect height="2" width="2" x="68" y="66"/>
<rect height="2" width="2" x="70" y="66"/>
<rect height="2" width="2" x="72" y="66"/>
<rect height="2" width="2" x="74" y="66"/>
<rect height="2" width="2" x="76" y="66"/>
<rect height="2" width="2" x="82" y="66"/>
<rect height="2" width="2" x="84" y="66"/>
<rect height="2" width="2" x="86" y="66"/>
<rect height="2" width="2" x="88" y="66"/>
<rect height="2" width="2" x="90" y="66"/>
<rect height="2" width="2" x="92" y="66"/>
<rect height="2" width="2" x="94" y="66"/>
<rect height="2" width="2" x="96" y="66"/>
<rect height="2" width="2" x="98" y="66"/>
<rect height="2" width="2" x="100" y="66"/>
<rect height="2" width="2" x="16" y="68"/>
<rect height="2" width="2" x="18" y="68"/>
<rect height="2" width="2" x="20" y="68"/>
<rect height="2" width="2" x="22" y="68"/>
<rect height="2" width="2" x="28" y="68"/>
<rect height="2" width="2" x="30" y="68"/>
<rect height="2" width="2" x="32" y="68"/>
<rect height="2" width="2" x="34" y="68"/>
<rect height="2" width="2" x="36" y="68"/>
<rect height="2" width="2" x="38" y="68"/>
<rect height="2" width="2" x="40" y="68"/>
<rect height="2" width="2" x="42" y="68"/>
<rect height="2" width="2" x="44" y="68"/>
<rect height="2" width="2" x="46" y="68"/>
<rect height="2" width="2" x="48" y="68"/>
<rect height="2" width="2" x="50" y="68"/>
<rect height="2" width="2" x="52" y="68"/>
<rect height="2" width="2" x="54" y="68"/>
<rect height="2" width="2" x="56" y="68"/>
<rect height="2" width="2" x="58" y="68"/>
<rect height="2" width="2" x="60" y="68"/>
<rect height="2" width="2" x="66" y="68"/>
<rect height="2" width="2" x="68" y="68"/>
<rect height="2" width="2" x="70" y="68"/>
<rect height="2" width="2" x="72" y="68"/>
<rect height="2" width="2" x="74" y="68"/>
<rect height="2" width="2" x="76" y="68"/>
<rect height="2" width="2" x="82" y="68"/>
<rect height="2" width="2" x="84" y="68"/>
<rect height="2" width="2" x="86" y="68"/>
<rect height="2" width="2" x="88" y="68"/>
<rect height="2" width="2" x="90" y="68"/>
<rect height="2" width="2" x="92" y="68"/>
<rect height="2" width="2" x="94" y="68"/>
<rect height="2" width="2" x="96" y="68"/>
<rect height="2" width="2" x="98" y="68"/>
<rect height="2" width="2" x="100" y="68"/>
<rect height="2" width="2" x="48" y="70"/>
<rect height="2" width="2" x="50" y="70"/>
<rect height="2" width="2" x="66" y="70"/>
<rect height="2" width="2" x="68" y="70"/>
<rect height="2" width="2" x="78" y="70"/>
<rect height="2" width="2" x="80" y="70"/>
<rect height="2" width="2" x="86" y="70"/>
<rect height="2" width="2" x="88" y="70"/>
<rect height="2" width="2" x="48" y="72"/>
<rect height="2" width="2" x="50" y="72"/>
<rect height="2" width="2" x="66" y="72"/>
<rect height="2" width="2" x="68" y="72"/>
<rect height="2" width="2" x="78" y="72"/>
<rect height="2" width="2" x="80" y="72"/>
<rect height="2" width="2" x="86" y="72"/>
<rect height="2" width="2" x="88" y="72"/>
<rect height="2" width="2" x="16" y="74"/>
<rect height="2" width="2" x="18" y="74"/>
<rect height="2" width="2" x="20" y="74"/>
<rect height="2" width="2" x="22" y="74"/>
<rect height="2" width="2" x="24" y="74"/>
<rect height="2" width="2" x="26" y="74"/>
<rect height="2" width="2" x="28" y="74"/>
<rect height="2" width="2" x="30" y="74"/>
<rect height="2" width="2" x="32" y="74"/>
<rect height="2" width="2" x="34" y="74"/>
<rect height="2" width="2" x="36" y="74"/>
<rect height="2" width="2" x="38" y="74"/>
<rect height="2" width="2" x="40" y="74"/>
<rect height="2" width="2" x="42" y="74"/>
<rect height="2" width="2" x="52" y="74"/>
<rect height="2" width="2" x="54" y="74"/>
<rect height="2" width="2" x="56" y="74"/>
<rect height="2" width="2" x="58" y="74"/>
<rect height="2" width="2" x="60" y="74"/>
<rect height="2" width="2" x="70" y="74"/>
<rect height="2" width="2" x="72" y="74"/>
<rect height="2" width="2" x="74" y="74"/>
<rect height="2" width="2" x="76" y="74"/>
<rect height="2" width="2" x="86" y="74"/>
<rect height="2" width="2" x="88" y="74"/>
<rect height="2" width="2" x="90" y="74"/>
<rect height="2" width="2" x="92" y="74"/>
<rect height="2" width="2" x="94" y="74"/>
<rect height="2" width="2" x="96" y="74"/>
<rect height="2" width="2" x="98" y="74"/>
<rect height="2" width="2" x="100" y="74"/>
<rect height="2" width="2" x="16" y="76"/>
<rect height="2" width="2" x="18" y="76"/>
<rect height="2" width="2" x="20" y="76"/>
<rect height="2" width="2" x="22" y="76"/>
<rect height="2" width="2" x="24" y="76"/>
<rect height="2" width="2" x="26" y="76"/>
<rect height="2" width="2" x="28" y="76"/>
<rect height="2" width="2" x="30" y="76"/>
<rect height="2" width="2" x="32" y="76"/>
<rect height="2" width="2" x="34" y="76"/>
<rect height="2" width="2" x="36" y="76"/>
<rect height="2" width="2" x="38" y="76"/>
<rect height="2" width="2" x="40" y="76"/>
<rect height="2" width="2" x="42" y="76"/>
<rect height="2" width="2" x="52" y="76"/>
<rect height="2" width="2" x="54" y="76"/>
<rect height="2" width="2" x="56" y="76"/>
<rect height="2" width="2" x="58" y="76"/>
<rect height="2" width="2" x="60" y="76"/>
<rect height="2" width="2" x="70" y="76"/>
<rect height="2" width="2" x="72" y="76"/>
<rect height="2" width="2" x="74" y="76"/>
<rect height="2" width="2" x="76" y="76"/>
<rect height="2" width="2" x="86" y="76"/>
<rect height="2" width="2" x="88" y="76"/>
<rect height="2" width="2" x="90" y="76"/>
<rect height="2" width="2" x="92" y="76"/>
<rect height="2" width="2" x="94" y="76"/>
<rect height="2" width="2" x="96" y="76"/>
<rect height="2" width="2" x="98" y="76"/>
<rect height="2" width="2" x="100" y="76"/>
<rect height="2" width="2" x="16" y="78"/>
<rect height="2" width="2" x="18" y="78"/>
<rect height="2" width="2" x="40" y="78"/>
<rect height="2" width="2" x="42" y="78"/>
<rect height="2" width="2" x="48" y="78"/>
<rect height="2" width="2" x="50" y="78"/>
<rect height="2" width="2" x="56" y="78"/>
<rect height="2" width="2" x="58" y="78"/>
<rect height="2" width="2" x="60" y="78"/>
<rect height="2" width="2" x="70" y="78"/>
<rect height="2" width="2" x="72" y="78"/>
<rect height="2" width="2" x="82" y="78"/>
<rect height="2" width="2" x="84" y="78"/>
<rect height="2" width="2" x="90" y="78"/>
<rect height="2" width="2" x="92" y="78"/>
<rect height="2" width="2" x="94" y="78"/>
<rect height="2" width="2" x="96" y="78"/>
<rect height="2" width="2" x="98" y="78"/>
<rect height="2" width="2" x="100" y="78"/>
<rect height="2" width="2" x="16" y="80"/>
<rect height="2" width="2" x="18" y="80"/>
<rect height="2" width="2" x="40" y="80"/>
<rect height="2" width="2" x="42" y="80"/>
<rect height="2" width="2" x="48" y="80"/>
<rect height="2" width="2" x="50" y="80"/>
<rect height="2" width="2" x="56" y="80"/>
<rect height="2" width="2" x="58" y="80"/>
<rect height="2" width="2" x="60" y="80"/>
<rect height="2" width="2" x="70" y="80"/>
<rect height="2" width="2" x="72" y="80"/>
<rect height="2" width="2" x="82" y="80"/>
<rect height="2" width="2" x="84" y="80"/>
<rect height="2" width="2" x="90" y="80"/>
<rect height="2" width="2" x="92" y="80"/>
<rect height="2" width="2" x="94" y="80"/>
<rect height="2" width="2" x="96" y="80"/>
<rect height="2" width="2" x="98" y="80"/>
<rect height="2" width="2" x="100" y="80"/>
<rect height="2" width="2" x="16" y="82"/>
<rect height="2" width="2" x="18" y="82"/>
<rect height="2" width="2" x="24" y="82"/>
<rect height="2" width="2" x="26" y="82"/>
<rect height="2" width="2" x="28" y="82"/>
<rect height="2" width="2" x="30" y="82"/>
<rect height="2" width="2" x="32" y="82"/>
<rect height="2" width="2" x="34" y="82"/>
<rect height="2" width="2" x="40" y="82"/>
<rect height="2" width="2" x="42" y="82"/>
<rect height="2" width="2" x="48" y="82"/>
<rect height="2" width="2" x="50" y="82"/>
<rect height="2" width="2" x="52" y="82"/>
<rect height="2" width="2" x="54" y="82"/>
<rect height="2" width="2" x="62" y="82"/>
<rect height="2" width="2" x="64" y="82"/>
<rect height="2" width="2" x="74" y="82"/>
<rect height="2" width="2" x="76" y="82"/>
<rect height="2" width="2" x="90" y="82"/>
<rect height="2" width="2" x="92" y="82"/>
<rect height="2" width="2" x="94" y="82"/>
<rect height="2" width="2" x="96" y="82"/>
<rect height="2" width="2" x="98" y="82"/>
<rect height="2" width="2" x="100" y="82"/>
<rect height="2" width="2" x="16" y="84"/>
<rect height="2" width="2" x="18" y="84"/>
<rect height="2" width="2" x="24" y="84"/>
<rect height="2" width="2" x="26" y="84"/>
<rect height="2" width="2" x="28" y="84"/>
<rect height="2" width="2" x="30" y="84"/>
<rect height="2" width="2" x="32" y="84"/>
<rect height="2" width="2" x="34" y="84"/>
<rect height="2" width="2" x="40" y="84"/>
<rect height="2" width="2" x="42" y="84"/>
<rect height="2" width="2" x="48" y="84"/>
<rect height="2" width="2" x="50" y="84"/>
<rect height="2" width="2" x="52" y="84"/>
<rect height="2" width="2" x="54" y="84"/>
<rect height="2" width="2" x="62" y="84"/>
<rect height="2" width="2" x="64" y="84"/>
<rect height="2" width="2" x="74" y="84"/>
<rect height="2" width="2" x="76" y="84"/>
<rect height="2" width="2" x="90" y="84"/>
<rect height="2" width="2" x="92" y="84"/>
<rect height="2" width="2" x="94" y="84"/>
<rect height="2" width="2" x="96" y="84"/>
<rect height="2" width="2" x="98" y="84"/>
<rect height="2" width="2" x="100" y="84"/>
<rect height="2" width="2" x="16" y="86"/>
<rect height="2" width="2" x="18" y="86"/>
<rect height="2" width="2" x="24" y="86"/>
<rect height="2" width="2" x="26" y="86"/>
<rect height="2" width="2" x="28" y="86"/>
<rect height="2" width="2" x="30" y="86"/>
<rect height="2" width="2" x="32" y="86"/>
<rect height="2" width="2" x="34" y="86"/>
<rect height="2" width="2" x="40" y="86"/>
<rect height="2" width="2" x="42" y="86"/>
<rect height="2" width="2" x="48" y="86"/>
<rect height="2" width="2" x="50" y="86"/>
<rect height="2" width="2" x="56" y="86"/>
<rect height="2" width="2" x="58" y="86"/>
<rect height="2" width="2" x="60" y="86"/>
<rect height="2" width="2" x="62" y="86"/>
<rect height="2" width="2" x="64" y="86"/>
<rect height="2" width="2" x="66" y="86"/>
<rect height="2" width="2" x="68" y="86"/>
<rect height="2" width="2" x="82" y="86"/>
<rect height="2" width="2" x="84" y="86"/>
<rect height="2" width="2" x="90" y="86"/>
<rect height="2" width="2" x="92" y="86"/>
<rect height="2" width="2" x="16" y="88"/>
<rect height="2" width="2" x="18" y="88"/>
<rect height="2" width="2" x="24" y="88"/>
<rect height="2" width="2" x="26" y="88"/>
<rect height="2" width="2" x="28" y="88"/>
<rect height="2" width="2" x="30" y="88"/>
<rect height="2" width="2" x="32" y="88"/>
<rect height="2" width="2" x="34" y="88"/>
<rect height="2" width="2" x="40" y="88"/>
<rect height="2" width="2" x="42" y="88"/>
<rect height="2" width="2" x="48" y="88"/>
<rect height="2" width="2" x="50" y="88"/>
<rect height="2" width="2" x="56" y="88"/>
<rect height="2" width="2" x="58" y="88"/>
<rect height="2" width="2" x="60" y="88"/>
<rect height="2" width="2" x="62" y="88"/>
<rect height="2" width="2" x="64" y="88"/>
<rect height="2" width="2" x="66" y="88"/>
<rect height="2" width="2" x="68" y="88"/>
<rect height="2" width="2" x="82" y="88"/>
<rect height="2" width="2" x="84" y="88"/>
<rect height="2" width="2" x="90" y="88"/>
<rect height="2" width="2" x="92" y="88"/>
<rect height="2" width="2" x="16" y="90"/>
<rect height="2" width="2" x="18" y="90"/>
<rect height="2" width="2" x="24" y="90"/>
<rect height="2" width="2" x="26" y="90"/>
<rect height="2" width="2" x="28" y="90"/>
<rect height="2" width="2" x="30" y="90"/>
<rect height="2" width="2" x="32" y="90"/>
<rect height="2" width="2" x="34" y="90"/>
<rect height="2" width="2" x="40" y="90"/>
<rect height="2" width="2" x="42" y="90"/>
<rect height="2" width="2" x="52" y="90"/>
<rect height="2" width="2" x="54" y="90"/>
<rect height="2" width="2" x="74" y="90"/>
<rect height="2" width="2" x="76" y="90"/>
<rect height="2" width="2" x="94" y="90"/>
<rect height="2" width="2" x="96" y="90"/>
<rect height="2" width="2" x="98" y="90"/>
<rect height="2" width="2" x="100" y="90"/>
<rect height="2" width="2" x="16" y="92"/>
<rect height="2" width="2" x="18" y="92"/>
<rect height="2" width="2" x="24" y="92"/>
<rect height="2" width="2" x="26" y="92"/>
<rect height="2" width="2" x="28" y="92"/>
<rect height="2" width="2" x="30" y="92"/>
<rect height="2" width="2" x="32" y="92"/>
<rect height="2" width="2" x="34" y="92"/>
<rect height="2" width="2" x="40" y="92"/>
<rect height="2" width="2" x="42" y="92"/>
<rect height="2" width="2" x="52" y="92"/>
<rect height="2" width="2" x="54" y="92"/>
<rect height="2" width="2" x="74" y="92"/>
<rect height="2" width="2" x="76" y="92"/>
<rect height="2" width="2" x="94" y="92"/>
<rect height="2" width="2" x="96" y="92"/>
<rect height="2" width="2" x="98" y="92"/>
<rect height="2" width="2" x="100" y="92"/>
<rect height="2" width="2" x="16" y="94"/>
<rect height="2" width="2" x="18" y="94"/>
<rect height="2" width="2" x="40" y="94"/>
<rect height="2" width="2" x="42" y="94"/>
<rect height="2" width="2" x="48" y="94"/>
<rect height="2" width="2" x="50" y="94"/>
<rect height="2" width="2" x="52" y="94"/>
<rect height="2" width="2" x="54" y="94"/>
<rect height="2" width="2" x="56" y="94"/>
<rect height="2" width="2" x="58" y="94"/>
<rect height="2" width="2" x="60" y="94"/>
<rect height="2" width="2" x="70" y="94"/>
<rect height="2" width="2" x="72" y="94"/>
<rect height="2" width="2" x="74" y="94"/>
<rect height="2" width="2" x="76" y="94"/>
<rect height="2" width="2" x="78" y="94"/>
<rect height="2" width="2" x="80" y="94"/>
<rect height="2" width="2" x="90" y="94"/>
<rect height="2" width="2" x="92" y="94"/>
<rect height="2" width="2" x="94" y="94"/>
<rect height="2" width="2" x="96" y="94"/>
<rect height="2" width="2" x="16" y="96"/>
<rect height="2" width="2" x="18" y="96"/>
<rect height="2" width="2" x="40" y="96"/>
<rect height="2" width="2" x="42" y="96"/>
<rect height="2" width="2" x="48" y="96"/>
<rect height="2" width="2" x="50" y="96"/>
<rect height="2" width="2" x="52" y="96"/>
<rect height="2" width="2" x="54" y="96"/>
<rect height="2" width="2" x="56" y="96"/>
<rect height="2" width="2" x="58" y="96"/>
<rect height="2" width="2" x="60" y="96"/>
<rect height="2" width="2" x="70" y="96"/>
<rect height="2" width="2" x="72" y="96"/>
<rect height="2" width="2" x="74" y="96"/>
<rect height="2" width="2" x="76" y="96"/>
<rect height="2" width="2" x="78" y="96"/>
<rect height="2" width="2" x="80" y="96"/>
<rect height="2" width="2" x="90" y="96"/>
<rect height="2" width="2" x="92" y="96"/>
<rect height="2" width="2" x="94" y="96"/>
<rect height="2" width="2" x="96" y="96"/>
<rect height="2" width="2" x="16" y="98"/>
<rect height="2" width="2" x="18" y="98"/>
<rect height="2" width="2" x="20" y="98"/>
<rect height="2" width="2" x="22" y="98"/>
<rect height="2" width="2" x="24" y="98"/>
<rect height="2" width="2" x="26" y="98"/>
<rect height="2" width="2" x="28" y="98"/>
<rect height="2" width="2" x="30" y="98"/>
<rect height="2" width="2" x="32" y="98"/>
<rect height="2" width="2" x="34" y="98"/>
<rect height="2" width="2" x="36" y="98"/>
<rect height="2" width="2" x="38" y="98"/>
<rect height="2" width="2" x="40" y="98"/>
<rect height="2" width="2" x="42" y="98"/>
<rect height="2" width="2" x="52" y="98"/>
<rect height="2" width="2" x="54" y="98"/>
<rect height="2" width="2" x="62" y="98"/>
<rect height="2" width="2" x="64" y="98"/>
<rect height="2" width="2" x="94" y="98"/>
<rect height="2" width="2" x="96" y="98"/>
<rect height="2" width="2" x="16" y="100"/>
<rect height="2" width="2" x="18" y="100"/>
<rect height="2" width="2" x="20" y="100"/>
<rect height="2" width="2" x="22" y="100"/>
<rect height="2" width="2" x="24" y="100"/>
<rect height="2" width="2" x="26" y="100"/>
<rect height="2" width="2" x="28" y="100"/>
<rect height="2" width="2" x="30" y="100"/>
<rect height="2" width="2" x="32" y="100"/>
<rect height="2" width="2" x="34" y="100"/>
<rect height="2" width="2" x="36" y="100"/>
<rect height="2" width="2" x="38" y="100"/>
<rect height="2" width="2" x="40" y="100"/>
<rect height="2" width="2" x="42" y="100"/>
<rect height="2" width="2" x="52" y="100"/>
<rect height="2" width="2" x="54" y="100"/>
<rect height="2" width="2" x="62" y="100"/>
<rect height="2" width="2" x="64" y="100"/>
<rect height="2" width="2" x="94" y="100"/>
<rect height="2" width="2" x="96" y="100"/>
</svg>